Coordinates
version=1
nRows=13
nColumns=36
inDegrees=yes

Units are S.I. units (second, meters, Newtons, ...)
If the header above contains a line with 'inDegrees', this indicates whether rotational values are in degrees (yes) or radians (no).

endheader
time	pelvis_tilt	pelvis_list	pelvis_rotation	pelvis_tx	pelvis_ty	pelvis_tz	hip_flexion_r	hip_adduction_r	hip_rotation_r	knee_angle_r	knee_angle_r_beta	ankle_angle_r	subtalar_angle_r	mtp_angle_r	hip_flexion_l	hip_adduction_l	hip_rotation_l	knee_angle_l	knee_angle_l_beta	ankle_angle_l	subtalar_angle_l	mtp_angle_l	lumbar_extension	lumbar_bending	lumbar_rotation	arm_flex_r	arm_add_r	arm_rot_r	elbow_flex_r	pro_sup_r	arm_flex_l	arm_add_l	arm_rot_l	elbow_flex_l	pro_sup_l
      0.89000000	    -15.39233187	     -0.32386763	      2.10892301	     -0.64960199	      1.41313743	     -0.59693112	     16.75294302	     -1.39495718	     -3.01093368	     30.44955732	      0.53144503	    -34.22908887	    -17.29841435	     -4.47481530	     22.18788585	     -2.01171527	     -3.46109433	     36.50214543	      0.63708262	    -30.01800906	     -8.95832985	     -4.47481530	     -7.42390936	      2.27316537	     -2.77845824	    -30.92746505	    -16.75487601	    -18.54249894	     51.72408925	    108.68482210	    -35.28167896	    -17.89055846	     -9.00131906	     62.48291900	    111.63029105
      0.90000000	    -15.46384968	     -0.43555163	      2.03312340	     -0.64034715	      1.41687370	     -0.59686524	     17.48641929	     -1.19879194	     -3.13707876	     29.86975125	      0.52132551	    -33.63219789	    -17.36250349	     -4.48285345	     22.83353051	     -2.16756390	     -3.51173374	     35.71248813	      0.62330050	    -30.08183885	     -8.63406659	     -4.48285345	     -7.86878367	      2.28366855	     -2.74869750	    -31.79751182	    -16.57233918	    -18.68251787	     51.60767331	    108.67404249	    -36.24947926	    -17.97197001	     -9.21817562	     62.38474644	    111.60727246
      0.91000000	    -15.77945217	     -0.44637088	      1.93353162	     -0.63155419	      1.41917585	     -0.59686902	     18.52867414	     -1.10357006	     -3.01681727	     29.28544426	      0.51112743	    -32.20212789	    -16.13716440	     -4.52093679	     23.80165401	     -2.22926625	     -3.70328779	     34.87907792	      0.60875475	    -30.26249954	     -7.09760110	     -4.52093679	     -8.11807977	      2.20908822	     -2.75158201	    -32.70253586	    -16.20015168	    -19.43923524	     51.76999361	    108.63871256	    -37.33506061	    -17.74868800	     -9.98444516	     62.74385135	    111.57312784
      0.92000000	    -15.90076931	     -0.47365785	      1.86068849	     -0.62255135	      1.42081994	     -0.59703940	     19.28911552	     -1.08238811	     -3.36060163	     28.41249117	      0.49589152	    -31.57727505	    -14.42739373	     -4.57013318	     24.47406147	     -2.31317633	     -4.06973939	     33.89675303	      0.59160995	    -29.65330434	     -6.11172109	     -4.57013318	     -8.60513098	      2.16386699	     -2.78120109	    -33.47317078	    -15.91010345	    -19.93892878	     51.66915868	    108.60724199	    -38.24847868	    -17.57608853	    -10.53927181	     62.74175131	    111.51357257
      0.93000000	    -16.07434523	     -0.49704181	      1.86054269	     -0.61363508	      1.42151970	     -0.59733695	     19.98851063	     -1.05042371	     -3.72425292	     27.20545525	      0.47482477	    -31.50410129	    -13.35868986	     -4.60640575	     25.16772090	     -2.33170519	     -4.32169694	     32.72489512	      0.57115717	    -29.29387076	     -5.32393409	     -4.60640575	     -9.05824202	      2.14234683	     -2.85947245	    -34.28306648	    -15.66663432	    -20.23742096	     51.55304403	    108.59379233	    -39.07021163	    -17.45379647	    -10.95610669	     62.64778068	    111.45499815
      0.94000000	    -16.23318199	     -0.54171680	      1.87755901	     -0.60479462	      1.42131053	     -0.59771668	     20.63072264	     -1.02402471	     -4.22939111	     25.81319342	      0.45052522	    -31.49170035	    -12.05561993	     -4.64990717	     25.82238213	     -2.37665657	     -4.59456220	     31.46288119	      0.54913087	    -28.80595049	     -4.38506536	     -4.64990717	     -9.55095268	      2.16202522	     -2.95598644	    -35.04943738	    -15.42733836	    -20.54448227	     51.39895725	    108.59388358	    -39.85396107	    -17.28092846	    -11.35903977	     62.47947391	    111.39702981
      0.95000000	    -16.51357139	     -0.56713208	      1.83477582	     -0.59604393	      1.41992772	     -0.59799978	     21.38417130	     -0.97768844	     -4.60310469	     24.31463142	      0.42437037	    -31.45031568	    -11.22065554	     -4.66851095	     26.56390248	     -2.39553635	     -4.91171402	     30.11094323	      0.52553510	    -28.46245786	     -3.92718263	     -4.66851095	     -9.88737693	      2.15575995	     -2.98621972	    -35.86260020	    -15.22773125	    -20.63795727	     51.23101497	    108.59525762	    -40.66393778	    -17.17952724	    -11.52551924	     62.27235537	    111.36430688
      0.96000000	    -16.68996622	     -0.66642921	      1.80623380	     -0.58719745	      1.41777788	     -0.59832240	     21.98583124	     -0.89622765	     -5.07757736	     22.73430833	      0.39678853	    -30.81446811	     -9.13783717	     -4.74589961	     27.16355128	     -2.53873943	     -5.29693943	     28.70986027	      0.50108159	    -27.80176425	     -2.65656699	     -4.74589961	    -10.38318488	      2.24295861	     -3.08698043	    -36.59164152	    -15.07449676	    -20.71234326	     50.99605085	    108.65340979	    -41.32659935	    -16.91103264	    -11.81788458	     61.91645654	    111.29295346
      0.97000000	    -16.97536199	     -0.75158966	      1.79563832	     -0.57826372	      1.41448212	     -0.59865816	     22.68700095	     -0.81539242	     -5.45063471	     21.11367374	      0.36850312	    -30.58264304	     -7.76821423	     -4.79179724	     27.83158619	     -2.62250467	     -5.55532514	     27.21376312	      0.47496977	    -27.65029409	     -1.95119020	     -4.79179724	    -10.70224143	      2.31057089	     -3.15253439	    -37.41649131	    -14.86903485	    -20.60834511	     50.74881210	    108.69820955	    -41.99425770	    -16.67526808	    -12.00207519	     61.50128771	    111.23289702
      0.98000000	    -17.33063166	     -0.81572957	      1.81594140	     -0.56943967	      1.41008207	     -0.59911781	     23.46359530	     -0.73986684	     -5.61814274	     19.49152409	      0.34019127	    -30.28579541	     -6.82409834	     -4.81695521	     28.55534915	     -2.63079363	     -5.60021495	     25.69994663	      0.44854869	    -27.48660573	     -1.43702613	     -4.81695521	    -10.93217121	      2.37097944	     -3.21726181	    -38.29821933	    -14.68186620	    -20.46760233	     50.55721491	    108.64336880	    -42.66135200	    -16.48240216	    -12.06003859	     61.23797190	    111.11057691
      0.99000000	    -17.53906563	     -0.91612045	      1.89417632	     -0.56039845	      1.40493171	     -0.59970366	     24.07828150	     -0.71984251	     -6.07664296	     17.91687399	      0.31270844	    -29.59935726	     -4.88899944	     -4.89028793	     29.10333701	     -2.69934622	     -5.72213241	     24.20833967	      0.42251523	    -27.19265353	     -0.53903254	     -4.89028793	    -11.30968481	      2.50523977	     -3.39482082	    -39.11456939	    -14.61411287	    -20.06997001	     50.24659147	    108.67111947	    -43.28060908	    -16.24217608	    -12.01079084	     60.81094141	    111.08130028
      1.00000000	    -17.88394574	     -1.00943284	      1.91675289	     -0.55142254	      1.39851258	     -0.59996577	     24.83672476	     -0.61782894	     -6.20491201	     16.31868780	      0.28481483	    -29.49778983	     -3.95938104	     -4.92036204	     29.80891075	     -2.78222020	     -5.83487923	     22.77677451	      0.39752971	    -27.11096002	     -0.04373928	     -4.92036204	    -11.50148370	      2.58793447	     -3.47472536	    -40.00289571	    -14.41545697	    -19.81273811	     50.03071476	    108.64490592	    -43.94564372	    -16.05190573	    -11.93991476	     60.54204391	    111.01149087
      1.01000000	    -18.17519760	     -1.10268693	      1.92874002	     -0.54234026	      1.39114394	     -0.60035922	     25.53736374	     -0.54244315	     -6.35919671	     14.76136905	      0.25763449	    -29.48322525	     -2.90110824	     -4.95139051	     30.45320252	     -2.86995972	     -5.97634143	     21.39864708	      0.37347685	    -27.10542417	      0.44964547	     -4.95139051	    -11.75079143	      2.69715413	     -3.53142269	    -40.87909336	    -14.23148872	    -19.43295183	     49.78723478	    108.65837847	    -44.55403360	    -15.83665030	    -11.79000602	     60.24693124	    110.96167834
